# xmcd
#
# Track frame offsets:
#	150
#	15849
#	32954
#	52883
#	70777
#	88902
#	109978
#	128440
#	145242
#	159914
#	177090
#	199480
#	216527
#
# Disc length: 3164 seconds
#
# Revision: 2
# Processed by: cddbd v1.5.2PL0 Copyright (c) Steve Scherf et al.
# Submitted via: audiograbber 1.83.01
#
DISCID=b30c5a0d
DTITLE=Various Artist - Promo Urban Club August 2004
DYEAR=2004
DGENRE=Hip Hop
TTITLE0=Twista Feat. Bumpy J and Cam'Ron - Overnight Celebrity (Remix) @
TTITLE1=Twista Feat. R. Kelly - So Sexy @
TTITLE2=Lil Flip Feat. Young Buck and Bun B - Game Over (Remix)
TTITLE3=Jadakiss Feat. Anthony Hamilton - Why?
TTITLE4=Bone Crusher Feat Ying Yang Twins - Take Ya Clothes Off @
TTITLE5=D12 - How Come (Extended Mix) @
TTITLE6=J-Kwon - Hood Hop @
TTITLE7=Young Buck - Let Me In
TTITLE8=Jadakiss Feat. Nate Dogg - The Champ Is Here (Times Up Remix)
TTITLE9=Jill Scott - Golden
TTITLE10=Brandy Feat. Kanye West - Talk About Our Love (Extended Mix)
TTITLE11=Lenny Kravitz Feat. Jay-Z - Storm
TTITLE12=Mobb Deep - Got It Twisted @
EXTD=
EXTT0=
EXTT1=
EXTT2=
EXTT3=
EXTT4=
EXTT5=
EXTT6=
EXTT7=
EXTT8=
EXTT9=
EXTT10=
EXTT11=
EXTT12=
PLAYORDER=
